<svg xmlns="http://www.w3.org/2000/svg" width="80" height="18" viewBox="0 0 80 18">
    <path fill="#FFF" d="M73.7 4.398c3.408 0 5.62 1.71 5.785 4.31h-3.402c0-.664-.17-1.783-2.213-1.783-1.365 0-2.214.222-2.383 1.187 0 1.34 2.892 1.267 5.105 1.783C78.636 10.418 80 11.68 80 13.468 80 16.739 77.277 18 73.87 18c-3.742 0-5.96-1.857-6.13-4.532h3.577c0 .891.51 2.078 2.722 2.152 1.534 0 2.383-.891 2.383-1.562-.17-1.039-1.534-1.113-2.892-1.34-1.534-.216-2.723-.517-3.577-.886-1.19-.596-1.874-1.863-1.874-3.197 0-2.38 2.05-4.237 5.62-4.237zM51.005 0v17.686h-3.402v-.818c-1.025.744-2.39 1.119-3.917 1.119-3.917 0-7.15-3.05-7.15-6.838 0-3.788 3.233-6.764 7.15-6.764 1.528 0 2.892.374 3.917 1.187V0h3.402zM30.203 0v17.686H26.8v-.818c-1.025.744-2.389 1.119-3.917 1.119-3.917 0-7.15-3.05-7.15-6.838 0-3.788 3.233-6.764 7.15-6.764 1.528 0 2.892.374 3.917 1.187V0h3.402zM6.973 4.268c1.535 0 3.069.375 4.087 1.12v-.819h3.408v13.154H11.06v-1.04c-1.188.813-2.552 1.188-4.086 1.188C3.232 17.87 0 14.895 0 11.106c0-3.788 3.232-6.838 6.974-6.838zm52.005 0c1.534 0 3.068.375 4.087 1.12v-.819h3.408v13.154h-3.408v-1.04c-1.189.813-2.553 1.188-4.087 1.188-3.741 0-6.973-2.976-6.973-6.765 0-3.788 3.232-6.838 6.973-6.838zm-23.775.13v13.451h-3.467V4.398h3.467zm8.483 2.963c-2.044 0-3.917 1.783-3.917 3.788 0 2.078 1.873 3.788 3.917 3.788 2.213 0 3.917-1.71 3.917-3.788 0-2.005-1.704-3.788-3.917-3.788zm-20.802 0c-2.044 0-3.917 1.783-3.917 3.788 0 2.078 1.873 3.788 3.917 3.788 2.213 0 3.917-1.71 3.917-3.788 0-2.005-1.704-3.788-3.917-3.788zm-15.74-.043c-2.038 0-3.912 1.71-3.912 3.788 0 2.005 1.874 3.789 3.911 3.789 2.22 0 3.917-1.784 3.917-3.789 0-2.078-1.698-3.788-3.917-3.788zm52.004 0c-2.038 0-3.911 1.71-3.911 3.788 0 2.005 1.873 3.789 3.91 3.789 2.22 0 3.918-1.784 3.918-3.789 0-2.078-1.698-3.788-3.917-3.788zM35.203 0v3.104h-3.467V0h3.467z"/>
</svg>
