<?xml version="1.0" encoding="UTF-8"?>
<svg width="114px" height="80px" viewBox="0 0 114 80" version="1.1" xmlns="http://www.w3.org/2000/svg" xmlns:xlink="http://www.w3.org/1999/xlink">
    <!-- Generator: Sketch 64 (93537) - https://sketch.com -->
    <title>shoe</title>
    <desc>Created with Sketch.</desc>
    <defs>
        <polygon id="path-1" points="0 0.1725 113.549314 0.1725 113.549314 45.85625 0 45.85625"></polygon>
    </defs>
    <g id="Page-3" stroke="none" stroke-width="1" fill="none" fill-rule="evenodd" opacity="0.369745164">
        <g id="shoe">
            <path d="M53.4464253,20.9875522 C48.8180578,23.2817641 44.0956277,24.4307851 39.3828449,24.4307851 C35.2841229,24.4307851 31.1945659,23.5608805 27.1797767,21.8339977 C25.2116955,22.5698499 22.2759743,23.5671044 21.5861812,23.2223981 C20.6204707,22.7431606 14.3911078,17.0397076 13.2715204,16.0075038 C13.1568958,15.9082282 13.0097745,15.8537689 12.8576445,15.854301 C11.9160527,15.885899 8.42946177,16.0003224 6.67121275,16.0582522 C9.51335356,10.930746 15.976185,2.52278495 17.2327662,1.69165977 C17.3919493,1.58633285 17.6673842,1.56335243 18.003598,1.60644072 C19.0817013,4.31717273 17.4295743,9.12582557 18.4025204,11.6364364 C18.980403,13.1272912 20.4159446,14.6899597 22.0598713,16.116182 C22.0675893,16.1228846 22.0772367,16.1243209 22.0854371,16.1310235 C22.1925238,16.2282115 22.3020225,16.3167819 22.4095916,16.4115761 C23.207627,17.0796013 24.0303149,17.7180647 24.875964,18.3256536 C24.978227,18.3950736 25.0819372,18.4582698 25.1842002,18.5267323 C33.9170782,23.2980419 42.8221633,23.6111502 51.6954118,19.4794622 C50.4369011,18.3945949 49.3259964,17.4361199 48.3998406,16.6365928 C35.0660903,20.3584632 25.3419361,13.6070074 23.8702166,10.6856216 C22.8827994,8.73324339 22.7983841,5.30054319 22.8524099,4.44356504 C22.9209068,3.35343138 22.6049526,2.38011485 21.2967574,1.38812673 C19.8433681,0.285545338 17.6755845,-0.500576522 16.3500239,0.376988258 C14.5454671,1.57101257 6.54290157,12.2320123 4.39055393,17.0387501 C3.18076283,19.7413432 2.04332766,24.2383241 1.0105674,30.4056943 C0.945954557,30.7962343 1.18339723,31.1737061 1.56529617,31.2875679 L1.56288431,31.2976218 C11.2248124,35.0965724 23.5446149,40.5692637 33.3073589,44.9949095 C34.2354443,45.337222 35.1490585,45.6780982 36.0293889,46.0146656 L61.3636108,27.7844901 C58.7215703,25.5222642 56.0825062,23.2566163 53.4464253,20.9875522 M66.0739816,31.8118087 L42.1425,49.0255794 L42.8761891,49.3621468 C44.1279466,49.9347422 45.2161798,50.4336088 46.1071224,50.8395963 L48.2126799,51.8004651 C48.3028836,51.8406808 48.3930873,51.8818541 48.4828087,51.9230273 L70.8166715,35.8501387 C69.2243587,34.4976453 67.6359049,33.1451518 66.0739816,31.8118087 M75.7981359,40.0694395 L55.2070862,54.9799019 C57.2451114,55.900555 59.2831367,56.8135479 61.317303,57.7107418 L80.4457982,43.9804197 C78.8941798,42.679569 77.3449564,41.3759068 75.7981359,40.0694395 M96.044289,70 C87.4855475,68.2831711 77.8443615,64.7494528 67.9113398,60.5569625 C69.6252105,59.2930394 81.6541422,50.4249912 85.1190264,47.8760796 C90.5736985,52.3893383 94.9247016,55.8804471 96.7128577,57.0500547 C97.1851007,61.3421269 97.147958,65.8817173 96.044289,70" id="Shape" fill="#C3C3C3" fill-rule="nonzero"></path>
            <g id="Group" transform="translate(0.000000, 34.000000)">
                <g id="Clipped">
                    <mask id="mask-2" fill="white">
                        <use xlink:href="#path-1"></use>
                    </mask>
                    <g id="a"></g>
                    <path d="M96.5352966,39.1996667 C82.0065763,36.3304167 64.6408983,28.4117083 47.8461864,20.7541458 L45.7391186,19.7929375 C44.8454746,19.386125 43.7537797,18.8863542 42.4988136,18.3113542 C37.6151695,16.0760417 29.8786271,12.5335625 21.6841525,8.91777083 C15.8585593,6.64029167 9.77694915,4.1529375 4.58898305,1.6258125 C3.34319492,1.11933333 2.12590678,0.631541667 0.954991525,0.1725 L0.00483050847,10.5459792 C-0.0388427592,11.0428703 0.247121691,11.5105395 0.711533898,11.7017292 C19.3283136,19.3650417 29.1062288,22.2635208 44.8271186,27.9818958 C68.6531186,36.6471458 97.8458136,48.4710625 111.920949,45.3421042 C112.674025,44.9683542 113.363822,42.27975 113.548831,41.0358333 C109.137127,40.8666875 102.678737,40.4129167 96.5348136,39.1996667" id="Path" fill="#C3C3C3" fill-rule="nonzero" opacity="0.4" mask="url(#mask-2)"></path>
                </g>
            </g>
            <path d="M110.919987,59.1106768 C108.112575,56.3156609 100.812811,52.1285121 98,50 C98.0971797,50.4407525 98.1894513,50.8922551 98.2753424,51.3437576 C99.0149876,51.8973858 99.7497248,52.4241388 100.456486,52.9455167 C107.524098,58.1006597 113.192912,62.2335695 111.14674,71.8924994 C112.058658,71.9413633 112.917079,71.9731248 113.716602,72 C114.207899,69.006108 114.466554,62.6366968 110.919497,59.1106768 M99.1828434,54.6762766 C99.0581786,54.5849011 98.9344954,54.4935255 98.8049225,54.4026387 C98.874617,54.8590276 98.9344954,55.3212802 98.9933921,55.7835329 L98.9933921,55.7889079 C103.339483,59.5299291 107.140778,63.3408258 105.094116,71.4194967 C106.438925,71.5592475 107.734654,71.6667481 108.971486,71.7581236 C110.897901,63.2279502 106.168981,59.7771806 99.1828434,54.6762766 M102.929169,71.1727339 C101.410665,70.9826922 99.8969171,70.7567141 98.3892095,70.4949914 C99.3551164,66.7862204 99.5445677,62.7979477 99.29033,58.9337894 C102.513946,61.964818 104.543431,65.136086 102.929169,71.1722453" id="Shape" fill="#C3C3C3" fill-rule="nonzero" opacity="0.4"></path>
            <path d="M97,55 C88.1273691,48.2630307 56.3865542,20.5406673 49.2028516,14.2550798 C48.8391562,13.5862053 48.9658258,13.0822588 49.5723046,12.6737969 C51.1556748,11.6128568 54.9874307,10.5784403 57.4891556,10.0214467 C58.4766029,9.79864934 60.54554,11.326403 63.1317113,13.9204014 L59.4371808,15.7611324 C58.787999,16.0900238 58.5188261,16.8857288 58.8460559,17.538207 C59.0012449,17.8535292 59.2748082,18.0938938 59.6064622,18.2063332 C59.9381163,18.3187726 60.3006423,18.2940589 60.6141527,18.1376381 L65.0571854,15.9202734 C65.7765402,16.6854126 66.4859186,17.4599649 67.185139,18.2437321 L63.6595014,20.0048926 C63.0103196,20.333784 62.7411466,21.129489 63.0683765,21.7819672 C63.2235655,22.0972894 63.4971287,22.337654 63.8287828,22.4500934 C64.1604369,22.5625328 64.5229629,22.5378191 64.8364732,22.3813983 L69.0060148,20.3019558 C69.6921418,21.0870514 70.3782689,21.8774518 71.0538402,22.6625474 L67.8818219,24.249135 C67.2326401,24.5775442 66.9634672,25.3732492 67.290697,26.0257273 C67.445886,26.3410495 67.7194493,26.5814142 68.0511033,26.6938536 C68.3827574,26.806293 68.7452834,26.7815793 69.0587938,26.6251585 L72.8324928,24.7419899 C73.6289759,25.6703124 74.3894735,26.5668068 75.10199,27.39434 L72.3680375,28.757648 C71.7188557,29.0865394 71.4496828,29.8822444 71.7769126,30.5347225 C71.9321016,30.8500447 72.2056649,31.0904094 72.5373189,31.2028488 C72.868973,31.3152882 73.231499,31.2905745 73.5450093,31.1341537 L76.9017542,29.4578684 C77.1287039,29.712494 77.3398199,29.9512055 77.5456581,30.1793076 C78.1182381,30.8094104 78.6953034,31.4353811 79.2768095,32.0571715 L76.8537733,33.2666432 C76.2050713,33.5955346 75.9358984,34.3912396 76.2631282,35.0437177 C76.4183172,35.3590399 76.6918804,35.5994046 77.0235345,35.711844 C77.3551886,35.8242834 77.7177146,35.7995697 78.0312249,35.6431489 L81.1874095,34.0676529 C82.0023715,34.924662 82.8222189,35.7769645 83.6469113,36.6245184 L81.3404687,37.7756384 C80.6912869,38.1045298 80.4221139,38.9002348 80.7493438,39.5527129 C80.9045328,39.8680351 81.178096,40.1083998 81.5097501,40.2208392 C81.8414042,40.3332786 82.2039302,40.3085649 82.5174405,40.1521441 L85.5891787,38.6190857 C86.4178091,39.4630153 87.2569953,40.3117673 88.0909036,41.1547324 L85.8262044,42.2846335 C85.1775025,42.613525 84.9083295,43.40923 85.2355594,44.0617081 C85.3907484,44.3770303 85.6643116,44.617395 85.9959657,44.7298344 C86.3276197,44.8422738 86.6901457,44.8175601 87.0036561,44.6611393 L90.0595606,43.1333856 C90.7548029,43.8279942 91.4514873,44.5211432 92.1496093,45.2128281 L90.5767949,45.9979237 C89.9276131,46.3268151 89.6584401,47.1225202 89.98567,47.7749983 C90.140859,48.0903205 90.4144222,48.3306851 90.7460763,48.4431245 C91.0777304,48.555564 91.4402564,48.5308502 91.7537667,48.3744294 L94.1547317,47.1755672 C94.2180665,47.2339189 94.2766032,47.2922706 94.3346602,47.3506223 C94.8096712,47.8068265 95.2525351,48.2365072 95.6646911,48.629055 C96.2127657,50.7295777 96.6583999,52.855761 97,55" id="Path" fill="#C3C3C3" fill-rule="nonzero"></path>
        </g>
    </g>
</svg>