<svg xmlns="http://www.w3.org/2000/svg" xmlns:xlink="http://www.w3.org/1999/xlink" width="25" height="25" viewBox="0 0 25 25">
    <defs>
        <path id="prefix__a" d="M10 8.9c-.61 0-1.1.49-1.1 1.1 0 .61.49 1.1 1.1 1.1.61 0 1.1-.49 1.1-1.1 0-.61-.49-1.1-1.1-1.1zM10 0C4.48 0 0 4.48 0 10s4.48 10 10 10 10-4.48 10-10S15.52 0 10 0zm2.19 12.19L4 16l3.81-8.19L16 4l-3.81 8.19z"/>
    </defs>
    <g fill="none" fill-rule="evenodd" transform="translate(2.834 2.732)">
        <mask id="prefix__b" fill="#fff">
            <use xlink:href="#prefix__a"/>
        </mask>
        <g fill="#FFF" mask="url(#prefix__b)">
            <path d="M0 0H50V50H0z" transform="translate(-15 -15)"/>
        </g>
    </g>
</svg>
