<svg xmlns="http://www.w3.org/2000/svg" xmlns:xlink="http://www.w3.org/1999/xlink" width="24" height="24" viewBox="0 0 24 24">
    <defs>
        <path id="prefix__a" d="M12 0C7.03 0 3 4.03 3 9H0l3.89 3.89.07.14L8 9H5c0-3.87 3.13-7 7-7s7 3.13 7 7-3.13 7-7 7c-1.93 0-3.68-.79-4.94-2.06l-1.42 1.42C7.27 16.99 9.51 18 12 18c4.97 0 9-4.03 9-9s-4.03-9-9-9zm-1 5v5l4.28 2.54.72-1.21-3.5-2.08V5H11z"/>
    </defs>
    <g fill="none" fill-rule="evenodd" transform="translate(1 3)">
        <mask id="prefix__b" fill="#fff">
            <use xlink:href="#prefix__a"/>
        </mask>
        <g fill="#FFF" mask="url(#prefix__b)">
            <path d="M0 0H50V50H0z" transform="translate(-14 -16)"/>
        </g>
    </g>
</svg>
